<?xml version="1.0" encoding="UTF-8" standalone="no"?>
<!DOCTYPE svg PUBLIC "-//W3C//DTD SVG 1.1//EN"
"http://www.w3.org/Graphics/SVG/1.1/DTD/svg11.dtd">
<svg viewBox="0 0 1286 909" version="1.1" xmlns="http://www.w3.org/2000/svg" xmlns:xlink="http://www.w3.org/1999/xlink">
<defs>
<clipPath id="c0"><path d="M30.7,886.9V18.3H1255.6V886.9Z"/></clipPath>
<clipPath id="c1"><path d="M516.5,135.2V42.4H769.8v92.8Z"/></clipPath>
<clipPath id="c2"><path d="M470.1,649.7V367.8H816.2V649.7Z"/></clipPath>
<clipPath id="c3"><path d="M196.4,749.3V635.2H440.8V749.3Z"/></clipPath>
<clipPath id="c4"><path d="M847.5,757.1V722.5h298.8v34.6Z"/></clipPath>
<clipPath id="c5"><path d="M627.3,746V632.8H831.5V746Z"/></clipPath>
<clipPath id="c6"><path d="M511,145.5V35.5H779.2v110Z"/></clipPath>
<clipPath id="c7"><path d="M557.3,326.9V169.4H729.1V326.9Z"/></clipPath>
<style type="text/css"><![CDATA[
.g0{
fill: #FFFFFF;
}
.g1{
fill: none;
stroke: #000000;
stroke-width: 1.145;
stroke-linecap: butt;
stroke-linejoin: round;
}
]]></style>
</defs>
<image clip-path="url(#c0)" preserveAspectRatio="none" x="31" y="18" width="1225" height="869" xlink:href="img/1.jpg"/>
<image clip-path="url(#c1)" preserveAspectRatio="none" x="517" y="42" width="253" height="93" xlink:href="img/2.png"/>
<image clip-path="url(#c2)" preserveAspectRatio="none" x="470" y="368" width="346" height="282" xlink:href="img/3.jpg"/>
<g clip-path="url(#c3)">
<image preserveAspectRatio="none" x="269" y="635" width="107" height="43" xlink:href="img/4.png"/>
<image preserveAspectRatio="none" x="373" y="677" width="49" height="38" xlink:href="img/5.png"/>
<image preserveAspectRatio="none" x="224" y="677" width="145" height="38" xlink:href="img/6.png"/>
<image preserveAspectRatio="none" x="234" y="726" width="174" height="23" xlink:href="img/7.png"/>
</g>
<path fill-rule="evenodd" d="M501.9,92.2c0,-30.6,24.9,-55.5,55.5,-55.5H730.5c30.7,0,55.5,24.9,55.5,55.5c0,30.7,-24.8,55.6,-55.5,55.6H557.4c-30.6,0,-55.5,-24.9,-55.5,-55.6Z" class="g0"/>
<path d="M501.9,92.2c0,-30.6,24.9,-55.5,55.5,-55.5H730.5c30.7,0,55.5,24.9,55.5,55.5c0,30.7,-24.8,55.6,-55.5,55.6H557.4c-30.6,0,-55.5,-24.9,-55.5,-55.6Z" class="g1"/>
<g clip-path="url(#c4)">
<image preserveAspectRatio="none" x="1111" y="723" width="33" height="28" xlink:href="img/8.png"/>
<image preserveAspectRatio="none" x="1103" y="723" width="16" height="28" xlink:href="img/9.png"/>
<image preserveAspectRatio="none" x="1088" y="723" width="20" height="28" xlink:href="img/10.png"/>
<image preserveAspectRatio="none" x="1074" y="723" width="21" height="28" xlink:href="img/11.png"/>
<image preserveAspectRatio="none" x="887" y="723" width="188" height="28" xlink:href="img/12.png"/>
</g>
<path fill-rule="evenodd" d="M895,553.4h3.3V496.9H895v56.5Z" class="g0"/>
<g clip-path="url(#c5)">
<image preserveAspectRatio="none" x="805" y="633" width="19" height="42" xlink:href="img/13.png"/>
<image preserveAspectRatio="none" x="800" y="633" width="11" height="42" xlink:href="img/14.png"/>
<image preserveAspectRatio="none" x="644" y="633" width="166" height="42" xlink:href="img/15.png"/>
<image preserveAspectRatio="none" x="737" y="675" width="74" height="37" xlink:href="img/16.png"/>
<image preserveAspectRatio="none" x="691" y="675" width="53" height="37" xlink:href="img/17.png"/>
<image preserveAspectRatio="none" x="654" y="675" width="39" height="37" xlink:href="img/18.png"/>
<image preserveAspectRatio="none" x="645" y="725" width="174" height="23" xlink:href="img/19.png"/>
</g>
<image clip-path="url(#c6)" preserveAspectRatio="none" x="511" y="36" width="268" height="110" xlink:href="img/20.png"/>
<image clip-path="url(#c7)" preserveAspectRatio="none" x="557" y="169" width="172" height="158" xlink:href="img/21.png"/>
</svg>